<svg width="775" height="262" viewBox="0 0 775 262" fill="none" xmlns="http://www.w3.org/2000/svg">
<path d="M146.008 120V106.169L156.128 104.01V37.8252L146.008 35.6663V21.7681H156.128H192.358L216.106 86.4689H216.511L239.585 21.7681H285.395V35.6663L275.207 37.8252V104.01L285.395 106.169V120H241.406V106.169L251.999 104.01V91.1916L252.538 44.9767L252.134 44.9093L224.337 120H205.716L177.515 45.7863L177.043 45.8538L178.662 87.9532V104.01L190.064 106.169V120H146.008ZM289.443 120V106.169L299.63 104.01V37.8252L289.443 35.6663V21.7681H367.907V50.1042H350.028L349.488 39.9842H323.311V60.1568H354.683V78.3054H323.311V101.716H350.77L351.31 91.1241H368.986V120H289.443ZM425.928 121.417C419.137 121.417 412.885 120.18 407.173 117.706C401.505 115.187 396.58 111.679 392.397 107.181C388.214 102.683 384.976 97.4211 382.682 91.394C380.433 85.322 379.309 78.7327 379.309 71.6262V70.0745C379.309 63.0129 380.433 56.4686 382.682 50.4416C384.976 44.4145 388.192 39.1521 392.33 34.6543C396.513 30.1565 401.438 26.6482 407.105 24.1295C412.772 21.6107 419.002 20.3513 425.793 20.3513C432.45 20.3513 438.635 21.6107 444.347 24.1295C450.059 26.6482 455.052 30.1565 459.325 34.6543C463.642 39.1521 466.993 44.4145 469.377 50.4416C471.761 56.4686 472.953 63.0129 472.953 70.0745V71.6262C472.953 78.7327 471.761 85.322 469.377 91.394C466.993 97.4211 463.665 102.683 459.392 107.181C455.119 111.679 450.127 115.187 444.414 117.706C438.702 120.18 432.54 121.417 425.928 121.417ZM425.928 103.471C430.876 103.471 435.104 102.144 438.612 99.49C442.12 96.8363 444.797 93.1257 446.641 88.358C448.485 83.5903 449.407 78.0131 449.407 71.6262V69.9395C449.407 63.6876 448.462 58.2003 446.573 53.4776C444.729 48.7099 442.053 44.9992 438.545 42.3455C435.036 39.6918 430.786 38.365 425.793 38.365C420.531 38.365 416.213 39.6693 412.84 42.2781C409.511 44.8868 407.038 48.5525 405.418 53.2752C403.799 57.9979 402.99 63.5526 402.99 69.9395V71.6262C402.99 78.0131 403.799 83.6128 405.418 88.4255C407.083 93.1931 409.601 96.9038 412.975 99.5575C416.393 102.166 420.711 103.471 425.928 103.471ZM513.028 120L490.359 36.6783L479.227 35.6663V21.7681H523.553V35.6663L512.623 37.218L523.351 81.139L524.902 87.4809H525.307L526.926 81.0716L546.155 21.7681H562.482L582.722 83.8377L584.138 88.0881H584.543L585.69 83.8377L597.16 37.218L585.893 35.6663V21.7681H629.341V35.6663L618.884 36.6783L595.203 120H574.086L557.152 69.1974L555.06 62.1808H554.655L552.024 69.6022L534.82 120H513.028ZM46.8991 251.417C40.6471 251.417 35.2498 250.337 30.707 248.178C26.1642 245.974 22.6334 242.893 20.1147 238.935C17.6409 234.977 16.404 230.345 16.404 225.037C16.404 219.775 17.9108 215.03 20.9243 210.802C23.9828 206.574 28.3906 202.278 34.1478 197.916C34.5076 197.601 34.8675 197.308 35.2273 197.038C35.5871 196.769 35.9469 196.499 36.3067 196.229C32.7085 191.686 30.0323 187.593 28.2782 183.95C26.569 180.262 25.7144 176.461 25.7144 172.548C25.7144 167.825 26.614 163.822 28.4131 160.539C30.2122 157.21 32.776 154.692 36.1043 152.983C39.4777 151.228 43.5032 150.351 48.1809 150.351C52.4988 150.351 56.232 151.183 59.3804 152.848C62.5289 154.512 64.9577 156.783 66.6669 159.662C68.421 162.54 69.2981 165.824 69.2981 169.512C69.2981 173.605 68.2861 177.113 66.2621 180.037C64.2381 182.915 61.3145 185.794 57.4914 188.673L46.7641 197.038L74.5605 229.423C76.7195 226.229 78.4061 222.653 79.6205 218.695C80.8349 214.737 81.4421 210.532 81.4421 206.079H88.931C88.931 211.836 88.0989 217.121 86.4347 221.934C84.8155 226.746 82.4541 231.109 79.3507 235.022L91.8321 249.663L91.6971 250H82.3867L74.0882 240.42C70.58 243.568 66.5994 246.199 62.1466 248.313C57.6938 250.382 52.6113 251.417 46.8991 251.417ZM46.8991 244.67C51.082 244.67 55.1075 243.838 58.9756 242.174C62.8887 240.51 66.4195 238.126 69.568 235.022L40.7596 201.626L37.6561 203.988C32.4386 208.26 28.9304 212.106 27.1312 215.524C25.3771 218.898 24.5 222.069 24.5 225.037C24.5 230.614 26.4116 235.292 30.2347 239.07C34.1028 242.804 39.6576 244.67 46.8991 244.67ZM42.4462 191.978L54.3204 182.938C56.9741 180.959 58.8407 178.867 59.9202 176.663C61.0446 174.415 61.6069 172.031 61.6069 169.512C61.6069 165.959 60.4149 163.013 58.0311 160.674C55.6923 158.335 52.4089 157.165 48.1809 157.165C43.5932 157.165 40.0399 158.627 37.5212 161.551C35.0474 164.474 33.8105 168.095 33.8105 172.413C33.8105 175.427 34.5076 178.552 35.9019 181.791C37.3412 185.029 39.5227 188.425 42.4462 191.978ZM99.7932 250V236.169L109.981 234.01V167.825L99.7932 165.666V151.768H180.686V180.711H162.807L162.335 169.984H133.662V192.721H167.058V210.802H133.662V234.01L143.849 236.169V250H99.7932ZM236.144 251.417C227.688 251.417 220.312 250.067 214.015 247.369C207.763 244.625 202.928 240.622 199.509 235.36C196.091 230.097 194.382 223.665 194.382 216.064V167.825L184.262 165.666V151.768H228.25V165.666L218.063 167.825V216.064C218.063 220.022 218.76 223.306 220.154 225.914C221.549 228.478 223.573 230.39 226.226 231.649C228.925 232.908 232.186 233.538 236.009 233.538C239.967 233.538 243.273 232.908 245.927 231.649C248.625 230.39 250.649 228.478 251.999 225.914C253.393 223.306 254.09 220.022 254.09 216.064V167.825L243.97 165.666V151.768H287.959V165.666L277.771 167.825V216.064C277.771 223.53 276.017 229.917 272.509 235.225C269 240.487 264.12 244.513 257.868 247.301C251.661 250.045 244.42 251.417 236.144 251.417ZM291.939 250V236.169L302.127 234.01V167.825L291.939 165.666V151.701H340.245C348.027 151.701 354.773 152.938 360.485 155.411C366.198 157.885 370.606 161.416 373.709 166.004C376.812 170.546 378.364 175.944 378.364 182.196C378.364 187.953 376.79 193.305 373.642 198.253C370.538 203.2 366.265 207.181 360.823 210.194C355.38 213.163 349.174 214.625 342.202 214.58L325.807 214.377V234.01L335.995 236.169V250H291.939ZM354.144 250L340.92 211.679L361.497 204.662L373.439 233.875L382.75 236.237V250H354.144ZM325.807 196.229H340.515C345.103 196.229 348.634 195.172 351.108 193.058C353.581 190.899 354.818 187.795 354.818 183.747C354.818 179.564 353.559 176.214 351.04 173.695C348.521 171.131 344.923 169.849 340.245 169.849H325.807V196.229ZM387.877 250V236.169L398.065 234.01V167.825L387.877 165.666V151.768H466.341V180.104H448.462L447.923 169.984H421.745V190.157H453.118V208.305H421.745V231.716H449.205L449.744 221.124H467.421V250H387.877ZM514.647 250L483.883 166.746L474.572 165.666V151.768H518.628V165.666L509.857 167.016L527.466 222.204L528.411 226.049H528.816L529.693 222.406L546.762 167.016L536.237 165.666V151.768H577.392V165.666L567.811 166.746L540.285 250H514.647ZM580.967 250V236.169L591.155 234.01V167.825L580.967 165.666V151.768H659.432V180.104H641.553L641.013 169.984H614.836V190.157H646.208V208.305H614.836V231.716H642.295L642.835 221.124H660.511V250H580.967ZM669.349 250V236.169L679.537 234.01V167.825L669.349 165.666V151.701H717.656C725.437 151.701 732.183 152.938 737.896 155.411C743.608 157.885 748.016 161.416 751.119 166.004C754.223 170.546 755.774 175.944 755.774 182.196C755.774 187.953 754.2 193.305 751.052 198.253C747.948 203.2 743.675 207.181 738.233 210.194C732.791 213.163 726.584 214.625 719.612 214.58L703.218 214.377V234.01L713.405 236.169V250H669.349ZM731.554 250L718.33 211.679L738.908 204.662L750.849 233.875L760.16 236.237V250H731.554ZM703.218 196.229H717.925C722.513 196.229 726.044 195.172 728.518 193.058C730.992 190.899 732.228 187.795 732.228 183.747C732.228 179.564 730.969 176.214 728.45 173.695C725.931 171.131 722.333 169.849 717.656 169.849H703.218V196.229Z" fill="#3A3838"/>
</svg>
