<svg width="775" height="76" viewBox="0 0 775 76" fill="none" xmlns="http://www.w3.org/2000/svg">
<rect x="119" y="4" width="536" height="66" rx="10" fill="#3A3838"/>
<rect x="1.12144" y="1.11609" width="533.655" height="62.5005" rx="31.2502" transform="matrix(0.999997 -0.00235545 0.00242629 0.999997 118.997 5.26485)" fill="#3A3838" stroke="#3A3838" stroke-width="2.23746"/>
<path d="M189.338 46.9484C187.749 46.948 186.256 46.6343 184.858 46.0074C183.459 45.3693 182.229 44.4907 181.167 43.3717C180.115 42.2526 179.288 40.9602 178.684 39.4945C178.092 38.0176 177.796 36.4401 177.796 34.762C177.797 33.0728 178.094 31.4954 178.687 30.0301C179.292 28.5535 180.12 27.2616 181.172 26.1544C182.235 25.036 183.466 24.1638 184.865 23.5377C186.263 22.9004 187.757 22.582 189.345 22.5825C191.247 22.5831 192.998 23.0255 194.597 23.9098C196.197 24.7828 197.522 25.9523 198.573 27.4182L194.915 29.3804C194.255 28.5636 193.433 27.9089 192.448 27.4163C191.475 26.9238 190.44 26.6774 189.344 26.6771C188.315 26.6768 187.347 26.889 186.441 27.3139C185.534 27.7275 184.74 28.309 184.057 29.0584C183.375 29.7965 182.843 30.6578 182.462 31.6422C182.082 32.6154 181.891 33.6557 181.891 34.7633C181.891 35.882 182.08 36.9281 182.46 37.9015C182.852 38.8749 183.388 39.7365 184.071 40.4862C184.753 41.2248 185.541 41.8067 186.436 42.2321C187.342 42.6463 188.31 42.8536 189.339 42.8539C190.458 42.8542 191.498 42.6084 192.461 42.1165C193.434 41.6133 194.251 40.9535 194.911 40.137L198.569 42.1183C197.517 43.5723 196.191 44.741 194.591 45.6243C192.991 46.5076 191.24 46.949 189.338 46.9484ZM208.233 46.9541C206.689 46.9536 205.28 46.556 204.005 45.7614C202.741 44.9667 201.728 43.9036 200.968 42.5721C200.219 41.2294 199.845 39.7469 199.845 38.1248C199.846 36.8942 200.064 35.7475 200.501 34.6849C200.937 33.611 201.536 32.6715 202.297 31.8662C203.069 31.0498 203.964 30.4124 204.983 29.954C206.001 29.4956 207.086 29.2666 208.238 29.2669C209.782 29.2674 211.186 29.665 212.45 30.4596C213.725 31.2543 214.737 32.323 215.486 33.6657C216.247 35.0084 216.627 36.4964 216.626 38.1298C216.626 39.3492 216.407 40.4902 215.971 41.5529C215.534 42.6156 214.93 43.5551 214.157 44.3716C213.396 45.1768 212.507 45.8086 211.489 46.267C210.482 46.7254 209.396 46.9544 208.233 46.9541ZM208.234 42.8595C209.051 42.8598 209.784 42.6418 210.433 42.2057C211.082 41.7696 211.591 41.1936 211.96 40.4777C212.341 39.7618 212.531 38.9788 212.532 38.1286C212.532 37.2559 212.336 36.4616 211.945 35.7455C211.565 35.0182 211.045 34.4419 210.385 34.0166C209.736 33.5801 209.02 33.3617 208.237 33.3615C207.432 33.3613 206.704 33.5792 206.055 34.0153C205.406 34.4514 204.892 35.033 204.511 35.7601C204.13 36.4871 203.94 37.2758 203.94 38.126C203.939 39.0098 204.135 39.8097 204.526 40.5259C204.918 41.242 205.438 41.8127 206.086 42.238C206.746 42.6521 207.462 42.8593 208.234 42.8595ZM234.611 35.92L234.608 46.5256L230.513 46.5244L230.516 36.9928C230.516 36.3327 230.354 35.7342 230.03 35.1971C229.706 34.6488 229.27 34.218 228.722 33.9046C228.185 33.58 227.586 33.4176 226.926 33.4174C226.266 33.4172 225.662 33.5792 225.114 33.9035C224.577 34.2166 224.146 34.6472 223.821 35.1952C223.508 35.7321 223.351 36.3306 223.351 36.9907L223.348 46.5222L219.253 46.521L219.242 29.7401L223.336 29.7413L223.352 31.2348C223.923 30.6309 224.606 30.1556 225.4 29.809C226.195 29.4513 227.05 29.2725 227.968 29.2728C229.187 29.2732 230.3 29.5756 231.307 30.18C232.314 30.7732 233.113 31.5733 233.706 32.5804C234.31 33.5762 234.611 34.6894 234.611 35.92ZM245.007 46.965C243.463 46.9645 242.054 46.567 240.778 45.7723C239.514 44.9776 238.502 43.9145 237.742 42.583C236.993 41.2403 236.619 39.7579 236.619 38.1357C236.619 36.9051 236.838 35.7585 237.275 34.6958C237.711 33.622 238.31 32.6824 239.071 31.8772C239.843 31.0607 240.738 30.4233 241.757 29.9649C242.775 29.5065 243.86 29.2775 245.012 29.2779C246.556 29.2783 247.96 29.6759 249.224 30.4706C250.499 31.2652 251.511 32.3339 252.26 33.6766C253.021 35.0193 253.401 36.5074 253.4 38.1407C253.4 39.3601 253.181 40.5012 252.745 41.5638C252.308 42.6265 251.703 43.566 250.931 44.3825C250.17 45.1877 249.281 45.8196 248.263 46.2779C247.256 46.7363 246.17 46.9653 245.007 46.965ZM245.008 42.8704C245.825 42.8707 246.558 42.6527 247.207 42.2166C247.856 41.7805 248.365 41.2045 248.734 40.4887C249.115 39.7728 249.305 38.9897 249.305 38.1395C249.306 37.2669 249.11 36.4725 248.719 35.7564C248.339 35.0291 247.819 34.4528 247.159 34.0275C246.51 33.591 245.794 33.3727 245.011 33.3724C244.206 33.3722 243.478 33.5901 242.829 34.0262C242.18 34.4623 241.665 35.0439 241.285 35.771C240.904 36.4981 240.714 37.2867 240.714 38.1369C240.713 39.0207 240.909 39.8207 241.3 40.5368C241.692 41.2529 242.212 41.8236 242.86 42.2489C243.52 42.663 244.236 42.8702 245.008 42.8704ZM266.482 41.484L270.173 43.482C269.401 44.5334 268.433 45.3778 267.269 46.0151C266.105 46.6524 264.835 46.9709 263.459 46.9705C261.915 46.97 260.506 46.5724 259.231 45.7778C257.967 44.9831 256.955 43.92 256.195 42.5885C255.445 41.2458 255.071 39.7634 255.072 38.1412C255.072 36.9106 255.29 35.764 255.727 34.7013C256.164 33.6275 256.763 32.6879 257.523 31.8826C258.296 31.0662 259.191 30.4288 260.209 29.9704C261.227 29.512 262.312 29.283 263.465 29.2834C264.841 29.2838 266.11 29.603 267.274 30.241C268.437 30.879 269.404 31.7351 270.176 32.8094L266.484 34.7884C266.092 34.3408 265.628 33.9939 265.091 33.7476C264.565 33.5013 264.023 33.3781 263.463 33.3779C262.658 33.3777 261.931 33.6012 261.282 34.0485C260.633 34.4846 260.118 35.0662 259.737 35.7933C259.357 36.5091 259.166 37.2922 259.166 38.1424C259.166 38.9815 259.356 39.7646 259.736 40.4919C260.116 41.208 260.631 41.7843 261.279 42.2208C261.928 42.6573 262.655 42.8757 263.461 42.8759C264.042 42.8761 264.596 42.7532 265.122 42.5072C265.648 42.2501 266.101 41.909 266.482 41.484ZM280.044 46.9754C278.5 46.9749 277.09 46.5774 275.815 45.7827C274.551 44.988 273.539 43.9193 272.779 42.5766C272.03 41.2339 271.655 39.7515 271.656 38.1294C271.656 36.9099 271.875 35.7689 272.311 34.7062C272.748 33.6324 273.347 32.6928 274.108 31.8876C274.88 31.0711 275.775 30.4337 276.793 29.9753C277.812 29.517 278.897 29.2879 280.049 29.2883C281.358 29.2887 282.555 29.5687 283.64 30.1284C284.736 30.6769 285.664 31.4323 286.425 32.3947C287.185 33.357 287.739 34.4535 288.085 35.6842C288.432 36.9149 288.51 38.2015 288.319 39.5439L276.052 39.5403C276.208 40.1668 276.466 40.7318 276.823 41.2354C277.181 41.7277 277.634 42.125 278.182 42.4272C278.73 42.7182 279.351 42.8695 280.045 42.8809C280.761 42.8923 281.41 42.7246 281.992 42.378C282.585 42.0202 283.077 41.5393 283.469 40.9353L287.647 41.9098C286.964 43.3975 285.946 44.6166 284.592 45.5672C283.238 46.5065 281.722 46.9759 280.044 46.9754ZM275.919 36.4693L284.175 36.4718C284.052 35.8005 283.789 35.1963 283.387 34.6592C282.995 34.1109 282.509 33.6744 281.927 33.3498C281.346 33.0252 280.719 32.8628 280.048 32.8626C279.377 32.8624 278.756 33.0245 278.185 33.3487C277.614 33.6618 277.128 34.0924 276.725 34.6404C276.333 35.1773 276.064 35.7869 275.919 36.4693ZM312.161 29.7677L316.256 29.7689L316.25 46.5499L312.156 46.5486L311.972 44.4678C311.513 45.2172 310.903 45.8267 310.142 46.2963C309.393 46.7548 308.503 46.9839 307.474 46.9836C306.232 46.9832 305.069 46.7479 303.984 46.2777C302.899 45.8075 301.942 45.1584 301.115 44.3303C300.298 43.5022 299.655 42.5455 299.186 41.4602C298.727 40.3749 298.498 39.2113 298.499 37.9695C298.499 36.7725 298.718 35.6482 299.154 34.5967C299.602 33.5453 300.223 32.6225 301.018 31.8284C301.812 31.0344 302.73 30.4138 303.771 29.9666C304.811 29.5194 305.93 29.296 307.127 29.2963C308.234 29.2967 309.224 29.5431 310.097 30.0356C310.981 30.5281 311.73 31.1548 312.345 31.9157L312.161 29.7677ZM307.374 43.04C308.247 43.0403 309.019 42.8223 309.69 42.3862C310.362 41.9501 310.888 41.363 311.268 40.6247C311.649 39.8753 311.839 39.0531 311.84 38.1581C311.84 37.2519 311.65 36.4296 311.27 35.6911C310.89 34.9414 310.359 34.3484 309.676 33.9119C309.005 33.4754 308.239 33.257 307.377 33.2567C306.516 33.2565 305.727 33.48 305.011 33.9272C304.306 34.3633 303.741 34.9505 303.316 35.6887C302.902 36.427 302.694 37.2492 302.694 38.1554C302.694 39.0615 302.906 39.8839 303.331 40.6223C303.756 41.3608 304.321 41.9483 305.025 42.3849C305.741 42.8214 306.524 43.0398 307.374 43.04ZM343.032 35.9523L343.028 46.5578L338.934 46.5566L338.937 37.025C338.937 36.365 338.775 35.7664 338.451 35.2293C338.126 34.681 337.69 34.2502 337.142 33.9368C336.605 33.6122 336.007 33.4498 335.347 33.4496C334.687 33.4494 334.083 33.6115 333.534 33.9357C332.997 34.2488 332.566 34.6794 332.242 35.2275C331.928 35.7644 331.772 36.3628 331.771 37.0229L331.768 46.5545L327.674 46.5533L327.662 29.7723L331.757 29.7735L331.773 31.267C332.344 30.6631 333.026 30.1878 333.821 29.8413C334.615 29.4835 335.471 29.3048 336.388 29.305C337.608 29.3054 338.721 29.6078 339.728 30.2122C340.734 30.8054 341.534 31.6056 342.127 32.6126C342.73 33.6084 343.032 34.7217 343.032 35.9523ZM345.702 40.3497L345.706 29.7777L349.8 29.7789L349.797 39.2769C349.797 39.937 349.959 40.5411 350.283 41.0894C350.608 41.6265 351.038 42.0573 351.575 42.3819C352.123 42.6953 352.722 42.8521 353.371 42.8523C354.042 42.8525 354.646 42.6961 355.183 42.383C355.72 42.0587 356.151 41.6281 356.476 41.0912C356.8 40.5432 356.963 39.9391 356.963 39.279L356.966 29.781L361.06 29.7822L361.072 46.5632L356.977 46.562L356.961 45.0349C356.379 45.6388 355.691 46.1197 354.897 46.4774C354.102 46.824 353.252 46.9972 352.346 46.9969C351.126 46.9965 350.013 46.6997 349.007 46.1065C348 45.5021 347.195 44.702 346.591 43.7061C345.998 42.6991 345.702 41.5803 345.702 40.3497ZM371.552 47.0026C370.008 47.0021 368.599 46.6046 367.324 45.8099C366.06 45.0152 365.048 43.9465 364.287 42.6038C363.538 41.2611 363.164 39.7787 363.164 38.1566C363.165 36.9371 363.383 35.7961 363.82 34.7334C364.257 33.6596 364.855 32.72 365.616 31.9148C366.389 31.0983 367.284 30.4609 368.302 30.0025C369.32 29.5442 370.405 29.3151 371.558 29.3155C372.867 29.3159 374.064 29.5959 375.149 30.1556C376.245 30.7041 377.173 31.4595 377.933 32.4219C378.694 33.3842 379.247 34.4807 379.594 35.7114C379.94 36.9421 380.018 38.2287 379.828 39.5711L367.561 39.5675C367.717 40.194 367.974 40.759 368.332 41.2626C368.69 41.7549 369.143 42.1522 369.691 42.4544C370.239 42.7455 370.86 42.8967 371.553 42.9081C372.269 42.9195 372.918 42.7518 373.5 42.4052C374.093 42.0474 374.586 41.5665 374.977 40.9625L379.156 41.937C378.473 43.4247 377.454 44.6438 376.1 45.5944C374.746 46.5337 373.23 47.0031 371.552 47.0026ZM367.427 36.4965L375.684 36.499C375.561 35.8277 375.298 35.2235 374.895 34.6864C374.504 34.1381 374.018 33.7016 373.436 33.377C372.854 33.0524 372.228 32.89 371.557 32.8898C370.885 32.8896 370.264 33.0517 369.694 33.3759C369.123 33.689 368.636 34.1196 368.233 34.6676C367.842 35.2045 367.573 35.8141 367.427 36.4965ZM387.637 46.8731C386.764 46.8169 385.92 46.6433 385.103 46.3522C384.298 46.0499 383.582 45.6413 382.956 45.1265C382.329 44.6117 381.849 43.9963 381.513 43.2802L384.97 41.8045C385.105 42.0283 385.323 42.2689 385.625 42.5263C385.927 42.7725 386.285 42.9796 386.698 43.1475C387.124 43.3154 387.588 43.3995 388.091 43.3996C388.516 43.3997 388.919 43.3439 389.3 43.2322C389.691 43.1092 390.004 42.9247 390.239 42.6787C390.486 42.4326 390.609 42.1138 390.609 41.7223C390.609 41.3083 390.464 40.9895 390.173 40.7656C389.893 40.5306 389.535 40.3571 389.099 40.2451C388.674 40.1219 388.26 40.0099 387.857 39.9091C386.795 39.6962 385.805 39.3659 384.887 38.9182C383.981 38.4704 383.249 37.894 382.69 37.1891C382.142 36.4729 381.868 35.6114 381.868 34.6046C381.869 33.497 382.16 32.5406 382.742 31.7353C383.335 30.93 384.101 30.3093 385.041 29.8733C385.992 29.4372 387.016 29.2194 388.112 29.2197C389.444 29.2201 390.663 29.5002 391.77 30.0599C392.889 30.6084 393.772 31.3861 394.421 32.3932L391.182 34.3053C391.025 34.0367 390.807 33.7905 390.527 33.5667C390.248 33.3317 389.929 33.1414 389.571 32.9959C389.213 32.8391 388.838 32.7495 388.447 32.727C387.943 32.7045 387.485 32.7491 387.071 32.8609C386.657 32.9726 386.321 33.1627 386.064 33.4311C385.818 33.6996 385.694 34.0575 385.694 34.505C385.694 34.9301 385.862 35.249 386.197 35.4617C386.533 35.6631 386.936 35.8199 387.405 35.9319C387.887 36.0439 388.345 36.1671 388.781 36.3015C389.766 36.6262 390.689 37.0236 391.55 37.4938C392.422 37.9639 393.121 38.5402 393.647 39.2228C394.173 39.9054 394.424 40.7221 394.401 41.6731C394.401 42.7582 394.076 43.7091 393.427 44.5255C392.778 45.3308 391.939 45.9459 390.91 46.3707C389.891 46.7955 388.801 46.963 387.637 46.8731ZM406.27 33.8902L403.015 33.8893L403.011 46.5757L398.916 46.5744L398.92 33.888L396.437 33.8873L396.438 29.7928L398.921 29.7935L398.923 24.5243L403.018 24.5255L403.016 29.7947L406.272 29.7957L406.27 33.8902ZM409.317 46.5775L409.305 29.7966L413.4 29.7978L413.416 31.2913C413.987 30.6874 414.67 30.2121 415.464 29.8655C416.258 29.5078 417.114 29.329 418.032 29.3293C418.647 29.3295 419.262 29.4192 419.878 29.5983L418.265 33.726C417.84 33.558 417.415 33.474 416.99 33.4739C416.33 33.4737 415.726 33.6357 415.178 33.96C414.64 34.2731 414.21 34.7037 413.885 35.2517C413.572 35.7886 413.415 36.3871 413.415 37.0472L413.412 46.5787L409.317 46.5775ZM428.352 47.0195C426.808 47.019 425.398 46.6215 424.123 45.8268C422.859 45.0321 421.847 43.969 421.087 42.6375C420.338 41.2948 419.964 39.8124 419.964 38.1902C419.964 36.9596 420.183 35.813 420.62 34.7503C421.056 33.6765 421.655 32.7369 422.416 31.9317C423.188 31.1152 424.083 30.4778 425.102 30.0194C426.12 29.561 427.205 29.332 428.357 29.3324C429.901 29.3328 431.305 29.7304 432.569 30.5251C433.844 31.3198 434.856 32.3884 435.605 33.7311C436.366 35.0738 436.745 36.5619 436.745 38.1952C436.745 39.4146 436.526 40.5557 436.089 41.6183C435.653 42.681 435.048 43.6205 434.276 44.437C433.515 45.2422 432.626 45.8741 431.608 46.3324C430.601 46.7908 429.515 47.0198 428.352 47.0195ZM428.353 42.9249C429.17 42.9252 429.903 42.7073 430.552 42.2711C431.201 41.835 431.71 41.259 432.079 40.5432C432.46 39.8273 432.65 39.0442 432.65 38.194C432.651 37.3214 432.455 36.527 432.064 35.8109C431.684 35.0836 431.164 34.5073 430.504 34.082C429.855 33.6455 429.139 33.4272 428.356 33.4269C427.55 33.4267 426.823 33.6446 426.174 34.0807C425.525 34.5168 425.01 35.0984 424.63 35.8255C424.249 36.5526 424.059 37.3412 424.059 38.1914C424.058 39.0752 424.254 39.8752 424.645 40.5913C425.037 41.3074 425.557 41.8781 426.205 42.3034C426.865 42.7175 427.581 42.9247 428.353 42.9249ZM444.437 46.89C443.564 46.8338 442.719 46.6602 441.903 46.3691C441.097 46.0668 440.382 45.6582 439.755 45.1434C439.129 44.6286 438.648 44.0132 438.313 43.2971L441.77 41.8214C441.904 42.0452 442.122 42.2858 442.424 42.5432C442.726 42.7894 443.084 42.9964 443.498 43.1644C443.923 43.3323 444.387 43.4164 444.891 43.4165C445.316 43.4166 445.719 43.3608 446.099 43.2491C446.491 43.1261 446.804 42.9416 447.039 42.6956C447.285 42.4495 447.408 42.1307 447.408 41.7392C447.409 41.3252 447.263 41.0063 446.972 40.7825C446.693 40.5475 446.335 40.374 445.899 40.262C445.474 40.1388 445.06 40.0268 444.657 39.926C443.594 39.7131 442.604 39.3828 441.687 38.935C440.781 38.4873 440.048 37.9109 439.489 37.2059C438.941 36.4898 438.667 35.6283 438.668 34.6214C438.668 33.5139 438.959 32.5575 439.541 31.7522C440.134 30.9468 440.901 30.3262 441.841 29.8902C442.792 29.4541 443.816 29.2363 444.912 29.2366C446.243 29.237 447.463 29.5171 448.57 30.0767C449.688 30.6253 450.572 31.403 451.221 32.4101L447.981 34.3221C447.825 34.0536 447.607 33.8074 447.327 33.5836C447.047 33.3486 446.729 33.1583 446.371 33.0128C446.013 32.856 445.638 32.7664 445.246 32.7439C444.743 32.7214 444.284 32.766 443.87 32.8778C443.456 32.9895 443.121 33.1796 442.863 33.448C442.617 33.7164 442.494 34.0744 442.494 34.5219C442.494 34.947 442.661 35.2659 442.997 35.4786C443.333 35.68 443.735 35.8368 444.205 35.9488C444.686 36.0608 445.145 36.184 445.581 36.3184C446.565 36.6431 447.488 37.0405 448.349 37.5106C449.222 37.9808 449.921 38.5571 450.447 39.2397C450.972 39.9223 451.224 40.739 451.201 41.6899C451.201 42.7751 450.876 43.7259 450.227 44.5424C449.578 45.3477 448.738 45.9628 447.709 46.3876C446.691 46.8124 445.6 46.9799 444.437 46.89ZM474.792 29.816L478.887 29.8173L478.881 46.5982L474.787 46.597L474.603 44.5161C474.144 45.2655 473.534 45.875 472.773 46.3447C472.024 46.8031 471.134 47.0322 470.105 47.0319C468.863 47.0315 467.7 46.7963 466.615 46.3261C465.53 45.8559 464.573 45.2067 463.746 44.3786C462.929 43.5505 462.286 42.5938 461.817 41.5085C461.358 40.4232 461.129 39.2597 461.13 38.0179C461.13 36.8208 461.349 35.6966 461.785 34.6451C462.233 33.5936 462.854 32.6709 463.649 31.8768C464.443 31.0827 465.361 30.4621 466.402 30.0149C467.442 29.5677 468.561 29.3443 469.758 29.3447C470.865 29.345 471.855 29.5914 472.728 30.0839C473.612 30.5764 474.361 31.2031 474.976 31.9641L474.792 29.816ZM470.005 43.0884C470.878 43.0886 471.65 42.8707 472.321 42.4346C472.993 41.9985 473.519 41.4113 473.899 40.6731C474.28 39.9236 474.47 39.1014 474.471 38.2064C474.471 37.3003 474.281 36.4779 473.901 35.7395C473.521 34.9898 472.99 34.3967 472.307 33.9602C471.636 33.5237 470.87 33.3053 470.008 33.3051C469.147 33.3048 468.358 33.5283 467.642 33.9756C466.937 34.4117 466.372 34.9989 465.947 35.7371C465.533 36.4753 465.325 37.2975 465.325 38.2037C465.325 39.1099 465.537 39.9322 465.962 40.6707C466.387 41.4092 466.952 41.9967 467.656 42.4332C468.372 42.8697 469.155 43.0881 470.005 43.0884ZM497.6 35.9982L497.597 46.6038L493.502 46.6026L493.505 37.071C493.505 36.4109 493.343 35.8124 493.019 35.2753C492.695 34.727 492.259 34.2962 491.71 33.9827C491.174 33.6582 490.575 33.4958 489.915 33.4956C489.255 33.4954 488.651 33.6574 488.103 33.9817C487.565 34.2948 487.135 34.7253 486.81 35.2734C486.497 35.8103 486.34 36.4088 486.34 37.0688L486.337 46.6004L482.242 46.5992L482.23 29.8183L486.325 29.8195L486.341 31.313C486.912 30.709 487.595 30.2338 488.389 29.8872C489.183 29.5295 490.039 29.3507 490.957 29.351C492.176 29.3513 493.289 29.6537 494.296 30.2581C495.303 30.8514 496.102 31.6515 496.695 32.6585C497.299 33.6544 497.6 34.7676 497.6 35.9982ZM500.945 29.8238L505.04 29.825L505.035 46.606L500.94 46.6048L500.945 29.8238ZM503.027 27.6597C502.423 27.6595 501.914 27.4636 501.5 27.0719C501.086 26.669 500.879 26.1656 500.879 25.5614C500.88 24.9685 501.087 24.4707 501.501 24.0681C501.915 23.6655 502.418 23.4643 503.011 23.4645C503.604 23.4646 504.102 23.6661 504.504 24.069C504.918 24.4719 505.125 24.9698 505.125 25.5627C505.125 26.1668 504.923 26.6702 504.52 27.0728C504.117 27.4642 503.62 27.6599 503.027 27.6597ZM508.937 46.6071L508.942 29.8262L513.037 29.8274L513.036 31.3209C513.607 30.717 514.29 30.2417 515.084 29.8951C515.879 29.5374 516.734 29.3586 517.652 29.3589C518.815 29.3593 519.884 29.6337 520.857 30.1821C521.841 30.7306 522.624 31.4636 523.205 32.3811C523.799 31.464 524.582 30.7314 525.555 30.1835C526.529 29.6356 527.597 29.3619 528.761 29.3622C529.991 29.3626 531.104 29.665 532.1 30.2694C533.107 30.8626 533.906 31.6627 534.499 32.6698C535.103 33.6656 535.404 34.7788 535.404 36.0095L535.401 46.615L531.306 46.6138L531.309 37.099C531.309 36.4501 531.147 35.8572 530.823 35.3201C530.51 34.7718 530.085 34.3354 529.548 34.0108C529.022 33.675 528.43 33.507 527.769 33.5068C527.109 33.5066 526.511 33.6687 525.974 33.9929C525.448 34.306 525.023 34.731 524.698 35.2679C524.373 35.8048 524.211 36.4145 524.211 37.0969L524.208 46.6117L520.113 46.6105L520.116 37.0957C520.116 36.4132 519.96 35.8035 519.647 35.2664C519.334 34.7293 518.909 34.3041 518.372 33.9907C517.835 33.6661 517.237 33.5037 516.577 33.5035C515.928 33.5033 515.335 33.6709 514.798 34.0064C514.261 34.3307 513.83 34.7668 513.505 35.3149C513.192 35.8518 513.035 36.4447 513.035 37.0936L513.032 46.6084L508.937 46.6071ZM551.093 29.8387L555.187 29.8399L555.182 46.6209L551.088 46.6197L550.904 44.5388C550.445 45.2882 549.835 45.8977 549.074 46.3674C548.324 46.8258 547.435 47.0549 546.406 47.0546C545.164 47.0542 544.001 46.8189 542.916 46.3487C541.831 45.8786 540.874 45.2294 540.047 44.4013C539.23 43.5732 538.587 42.6165 538.118 41.5312C537.659 40.4459 537.43 39.2823 537.431 38.0405C537.431 36.8435 537.65 35.7192 538.086 34.6678C538.534 33.6163 539.155 32.6935 539.95 31.8995C540.744 31.1054 541.662 30.4848 542.702 30.0376C543.743 29.5904 544.862 29.367 546.059 29.3674C547.166 29.3677 548.156 29.6141 549.029 30.1066C549.912 30.5991 550.662 31.2258 551.277 31.9867L551.093 29.8387ZM546.306 43.111C547.179 43.1113 547.951 42.8934 548.622 42.4573C549.294 42.0212 549.82 41.434 550.2 40.6957C550.581 39.9463 550.771 39.1241 550.772 38.2291C550.772 37.3229 550.582 36.5006 550.202 35.7621C549.822 35.0125 549.29 34.4194 548.608 33.9829C547.937 33.5464 547.171 33.328 546.309 33.3277C545.448 33.3275 544.659 33.551 543.943 33.9983C543.238 34.4344 542.673 35.0215 542.248 35.7598C541.833 36.498 541.626 37.3202 541.626 38.2264C541.626 39.1326 541.838 39.9549 542.263 40.6934C542.688 41.4319 543.252 42.0194 543.957 42.4559C544.673 42.8924 545.456 43.1108 546.306 43.111ZM558.625 46.6219L558.632 21.4505L562.727 21.4517L562.719 46.6231L558.625 46.6219ZM573.874 47.0628C572.33 47.0623 570.921 46.6647 569.646 45.87C568.382 45.0754 567.37 44.0067 566.609 42.664C565.86 41.3213 565.486 39.8389 565.486 38.2167C565.487 36.9973 565.705 35.8562 566.142 34.7936C566.578 33.7197 567.177 32.7802 567.938 31.9749C568.71 31.1585 569.606 30.5211 570.624 30.0627C571.642 29.6043 572.727 29.3753 573.88 29.3756C575.188 29.376 576.385 29.6561 577.47 30.2157C578.567 30.7643 579.495 31.5197 580.255 32.482C581.016 33.4443 581.569 34.5409 581.916 35.7716C582.262 37.0023 582.34 38.2888 582.149 39.6313L569.883 39.6276C570.039 40.2541 570.296 40.8192 570.654 41.3227C571.012 41.8151 571.465 42.2123 572.013 42.5146C572.561 42.8056 573.182 42.9568 573.875 42.9682C574.591 42.9796 575.24 42.812 575.822 42.4654C576.415 42.1075 576.908 41.6266 577.299 41.0226L581.477 41.9972C580.795 43.4849 579.776 44.704 578.422 45.6545C577.068 46.5938 575.552 47.0633 573.874 47.0628ZM569.749 36.5567L578.005 36.5591C577.883 35.8878 577.62 35.2836 577.217 34.7465C576.826 34.1982 576.339 33.7618 575.758 33.4372C575.176 33.1126 574.55 32.9502 573.878 32.95C573.207 32.9498 572.586 33.1118 572.016 33.4361C571.445 33.7491 570.958 34.1797 570.555 34.7278C570.164 35.2646 569.895 35.8743 569.749 36.5567ZM589.959 46.9333C589.086 46.8771 588.242 46.7034 587.425 46.4123C586.62 46.11 585.904 45.7015 585.278 45.1867C584.651 44.6719 584.17 44.0564 583.835 43.3403L587.292 41.8646C587.426 42.0884 587.645 42.329 587.947 42.5864C588.249 42.8326 588.606 43.0397 589.02 43.2076C589.445 43.3756 589.91 43.4596 590.413 43.4598C590.838 43.4599 591.241 43.4041 591.621 43.2923C592.013 43.1694 592.326 42.9849 592.561 42.7388C592.807 42.4928 592.931 42.174 592.931 41.7824C592.931 41.3685 592.786 41.0496 592.495 40.8258C592.215 40.5908 591.857 40.4172 591.421 40.3052C590.996 40.1821 590.582 40.0701 590.179 39.9693C589.116 39.7564 588.127 39.4261 587.209 38.9783C586.303 38.5305 585.571 37.9542 585.012 37.2492C584.464 36.5331 584.19 35.6716 584.19 34.6647C584.19 33.5572 584.482 32.6007 585.064 31.7954C585.657 30.9901 586.423 30.3694 587.363 29.9334C588.314 29.4974 589.338 29.2795 590.434 29.2799C591.765 29.2803 592.985 29.5603 594.092 30.12C595.211 30.6685 596.094 31.4463 596.743 32.4533L593.504 34.3654C593.347 34.0969 593.129 33.8507 592.849 33.6269C592.57 33.3918 592.251 33.2016 591.893 33.056C591.535 32.8993 591.16 32.8097 590.769 32.7872C590.265 32.7647 589.807 32.8093 589.393 32.921C588.979 33.0328 588.643 33.2229 588.386 33.4913C588.139 33.7597 588.016 34.1177 588.016 34.5651C588.016 34.9903 588.184 35.3092 588.519 35.5218C588.855 35.7233 589.258 35.88 589.727 35.992C590.208 36.1041 590.667 36.2273 591.103 36.3616C592.088 36.6864 593.01 37.0838 593.872 37.5539C594.744 38.024 595.443 38.6004 595.969 39.283C596.494 39.9655 596.746 40.7823 596.723 41.7332C596.723 42.8184 596.398 43.7692 595.749 44.5857C595.1 45.391 594.261 46.006 593.231 46.4308C592.213 46.8556 591.122 47.0231 589.959 46.9333Z" fill="white"/>
</svg>
