<svg width="775" height="339" viewBox="0 0 775 339" fill="none" xmlns="http://www.w3.org/2000/svg">
<path d="M146.008 159V145.169L156.128 143.01V76.8252L146.008 74.6663V60.7681H156.128H192.358L216.106 125.469H216.511L239.585 60.7681H285.395V74.6663L275.207 76.8252V143.01L285.395 145.169V159H241.406V145.169L251.999 143.01V130.192L252.538 83.9767L252.134 83.9093L224.337 159H205.716L177.515 84.7863L177.043 84.8538L178.662 126.953V143.01L190.064 145.169V159H146.008ZM289.443 159V145.169L299.63 143.01V76.8252L289.443 74.6663V60.7681H367.907V89.1042H350.028L349.488 78.9842H323.311V99.1568H354.683V117.305H323.311V140.716H350.77L351.31 130.124H368.986V159H289.443ZM425.928 160.417C419.137 160.417 412.885 159.18 407.173 156.706C401.505 154.187 396.58 150.679 392.397 146.181C388.214 141.683 384.976 136.421 382.682 130.394C380.433 124.322 379.309 117.733 379.309 110.626V109.074C379.309 102.013 380.433 95.4686 382.682 89.4416C384.976 83.4145 388.192 78.1521 392.33 73.6543C396.513 69.1565 401.438 65.6482 407.105 63.1295C412.772 60.6107 419.002 59.3513 425.793 59.3513C432.45 59.3513 438.635 60.6107 444.347 63.1295C450.059 65.6482 455.052 69.1565 459.325 73.6543C463.642 78.1521 466.993 83.4145 469.377 89.4416C471.761 95.4686 472.953 102.013 472.953 109.074V110.626C472.953 117.733 471.761 124.322 469.377 130.394C466.993 136.421 463.665 141.683 459.392 146.181C455.119 150.679 450.127 154.187 444.414 156.706C438.702 159.18 432.54 160.417 425.928 160.417ZM425.928 142.471C430.876 142.471 435.104 141.144 438.612 138.49C442.12 135.836 444.797 132.126 446.641 127.358C448.485 122.59 449.407 117.013 449.407 110.626V108.94C449.407 102.688 448.462 97.2003 446.573 92.4776C444.729 87.7099 442.053 83.9992 438.545 81.3455C435.036 78.6918 430.786 77.365 425.793 77.365C420.531 77.365 416.213 78.6693 412.84 81.2781C409.511 83.8868 407.038 87.5525 405.418 92.2752C403.799 96.9979 402.99 102.553 402.99 108.94V110.626C402.99 117.013 403.799 122.613 405.418 127.425C407.083 132.193 409.601 135.904 412.975 138.558C416.393 141.166 420.711 142.471 425.928 142.471ZM513.028 159L490.359 75.6783L479.227 74.6663V60.7681H523.553V74.6663L512.623 76.218L523.351 120.139L524.902 126.481H525.307L526.926 120.072L546.155 60.7681H562.482L582.722 122.838L584.138 127.088H584.543L585.69 122.838L597.16 76.218L585.893 74.6663V60.7681H629.341V74.6663L618.884 75.6783L595.203 159H574.086L557.152 108.197L555.06 101.181H554.655L552.024 108.602L534.82 159H513.028ZM46.8991 290.417C40.6471 290.417 35.2498 289.337 30.707 287.178C26.1642 284.974 22.6334 281.893 20.1147 277.935C17.6409 273.977 16.404 269.345 16.404 264.037C16.404 258.775 17.9108 254.03 20.9243 249.802C23.9828 245.574 28.3906 241.278 34.1478 236.916C34.5076 236.601 34.8675 236.308 35.2273 236.038C35.5871 235.769 35.9469 235.499 36.3067 235.229C32.7085 230.686 30.0323 226.593 28.2782 222.95C26.569 219.262 25.7144 215.461 25.7144 211.548C25.7144 206.825 26.614 202.822 28.4131 199.539C30.2122 196.21 32.776 193.692 36.1043 191.983C39.4777 190.228 43.5032 189.351 48.1809 189.351C52.4988 189.351 56.232 190.183 59.3804 191.848C62.5289 193.512 64.9577 195.783 66.6669 198.662C68.421 201.54 69.2981 204.824 69.2981 208.512C69.2981 212.605 68.2861 216.113 66.2621 219.037C64.2381 221.915 61.3145 224.794 57.4914 227.673L46.7641 236.038L74.5605 268.423C76.7195 265.229 78.4061 261.653 79.6205 257.695C80.8349 253.737 81.4421 249.532 81.4421 245.079H88.931C88.931 250.836 88.0989 256.121 86.4347 260.934C84.8155 265.746 82.4541 270.109 79.3507 274.022L91.8321 288.663L91.6971 289H82.3867L74.0882 279.42C70.58 282.568 66.5994 285.199 62.1466 287.313C57.6938 289.382 52.6113 290.417 46.8991 290.417ZM46.8991 283.67C51.082 283.67 55.1075 282.838 58.9756 281.174C62.8887 279.51 66.4195 277.126 69.568 274.022L40.7596 240.626L37.6561 242.988C32.4386 247.26 28.9304 251.106 27.1312 254.524C25.3771 257.898 24.5 261.069 24.5 264.037C24.5 269.614 26.4116 274.292 30.2347 278.07C34.1028 281.804 39.6576 283.67 46.8991 283.67ZM42.4462 230.978L54.3204 221.938C56.9741 219.959 58.8407 217.867 59.9202 215.663C61.0446 213.415 61.6069 211.031 61.6069 208.512C61.6069 204.959 60.4149 202.013 58.0311 199.674C55.6923 197.335 52.4089 196.165 48.1809 196.165C43.5932 196.165 40.0399 197.627 37.5212 200.551C35.0474 203.474 33.8105 207.095 33.8105 211.413C33.8105 214.427 34.5076 217.552 35.9019 220.791C37.3412 224.029 39.5227 227.425 42.4462 230.978ZM99.7932 289V275.169L109.981 273.01V206.825L99.7932 204.666V190.768H180.686V219.711H162.807L162.335 208.984H133.662V231.721H167.058V249.802H133.662V273.01L143.849 275.169V289H99.7932ZM236.144 290.417C227.688 290.417 220.312 289.067 214.015 286.369C207.763 283.625 202.928 279.622 199.509 274.36C196.091 269.097 194.382 262.665 194.382 255.064V206.825L184.262 204.666V190.768H228.25V204.666L218.063 206.825V255.064C218.063 259.022 218.76 262.306 220.154 264.914C221.549 267.478 223.573 269.39 226.226 270.649C228.925 271.908 232.186 272.538 236.009 272.538C239.967 272.538 243.273 271.908 245.927 270.649C248.625 269.39 250.649 267.478 251.999 264.914C253.393 262.306 254.09 259.022 254.09 255.064V206.825L243.97 204.666V190.768H287.959V204.666L277.771 206.825V255.064C277.771 262.53 276.017 268.917 272.509 274.225C269 279.487 264.12 283.513 257.868 286.301C251.661 289.045 244.42 290.417 236.144 290.417ZM291.939 289V275.169L302.127 273.01V206.825L291.939 204.666V190.701H340.245C348.027 190.701 354.773 191.938 360.485 194.411C366.198 196.885 370.606 200.416 373.709 205.004C376.812 209.546 378.364 214.944 378.364 221.196C378.364 226.953 376.79 232.305 373.642 237.253C370.538 242.2 366.265 246.181 360.823 249.194C355.38 252.163 349.174 253.625 342.202 253.58L325.807 253.377V273.01L335.995 275.169V289H291.939ZM354.144 289L340.92 250.679L361.497 243.662L373.439 272.875L382.75 275.237V289H354.144ZM325.807 235.229H340.515C345.103 235.229 348.634 234.172 351.108 232.058C353.581 229.899 354.818 226.795 354.818 222.747C354.818 218.564 353.559 215.214 351.04 212.695C348.521 210.131 344.923 208.849 340.245 208.849H325.807V235.229ZM387.877 289V275.169L398.065 273.01V206.825L387.877 204.666V190.768H466.341V219.104H448.462L447.923 208.984H421.745V229.157H453.118V247.305H421.745V270.716H449.205L449.744 260.124H467.421V289H387.877ZM514.647 289L483.883 205.746L474.572 204.666V190.768H518.628V204.666L509.857 206.016L527.466 261.204L528.411 265.049H528.816L529.693 261.406L546.762 206.016L536.237 204.666V190.768H577.392V204.666L567.811 205.746L540.285 289H514.647ZM580.967 289V275.169L591.155 273.01V206.825L580.967 204.666V190.768H659.432V219.104H641.553L641.013 208.984H614.836V229.157H646.208V247.305H614.836V270.716H642.295L642.835 260.124H660.511V289H580.967ZM669.349 289V275.169L679.537 273.01V206.825L669.349 204.666V190.701H717.656C725.437 190.701 732.183 191.938 737.896 194.411C743.608 196.885 748.016 200.416 751.119 205.004C754.223 209.546 755.774 214.944 755.774 221.196C755.774 226.953 754.2 232.305 751.052 237.253C747.948 242.2 743.675 246.181 738.233 249.194C732.791 252.163 726.584 253.625 719.612 253.58L703.218 253.377V273.01L713.405 275.169V289H669.349ZM731.554 289L718.33 250.679L738.908 243.662L750.849 272.875L760.16 275.237V289H731.554ZM703.218 235.229H717.925C722.513 235.229 726.044 234.172 728.518 232.058C730.992 229.899 732.228 226.795 732.228 222.747C732.228 218.564 730.969 215.214 728.45 212.695C725.931 210.131 722.333 208.849 717.656 208.849H703.218V235.229Z" fill="#3A3838"/>
</svg>
